<svg id="Grupo_1500" data-name="Grupo 1500" xmlns="http://www.w3.org/2000/svg" width="310" height="278.205" viewBox="0 0 310 278.205">
  <g id="Grupo_32" data-name="Grupo 32" transform="translate(0 256.599)">
    <rect id="Retângulo_16" data-name="Retângulo 16" width="310" height="21.606" fill="#fff"/>
  </g>
  <g id="Grupo_33" data-name="Grupo 33" transform="translate(8.793 177.911)">
    <path id="Caminho_244" data-name="Caminho 244" d="M320.028,137.095c-31.388.008-77.95-1.1-126.706-6.308-48.788-5.238-99.691-14.455-140.345-31.269l8.272-19.953c37.32,15.5,86.743,24.68,134.369,29.745,47.643,5.087,93.543,6.194,124.4,6.184,11.892-.005,21.56-.17,28.233-.343,2.356-.059,4.333-.116,5.911-.168l.011,21.614C347.742,136.8,335.807,137.087,320.028,137.095Z" transform="translate(-52.977 -79.565)" fill="#fff"/>
  </g>
  <g id="Grupo_34" data-name="Grupo 34" transform="translate(67.862 98.702)">
    <path id="Caminho_245" data-name="Caminho 245" d="M302.037,144.138h-.089c-22.087.005-60.834-1.783-103.111-12.408C156.6,121.084,110.6,101.577,74.843,65.426L90.209,50.244c31.828,32.255,74.068,50.514,113.9,60.523,39.79,10.028,76.953,11.784,97.83,11.767,5.33,0,9.6-.114,12.586-.235.94-.038,1.734-.073,2.42-.108l.005,21.633C313.712,143.97,308.6,144.138,302.037,144.138Z" transform="translate(-74.843 -50.244)" fill="#fff"/>
  </g>
  <g id="Grupo_35" data-name="Grupo 35" transform="translate(161.116)">
    <path id="Caminho_246" data-name="Caminho 246" d="M195.671,142.2A171.083,171.083,0,0,1,145.608,98.33c-15.5-20.115-28.627-46.289-36.245-79.838l21.066-4.784c6.989,30.7,18.724,53.8,32.3,71.442a150.931,150.931,0,0,0,64.843,48.515,150.169,150.169,0,0,0,24.491,7.329c2.531.516,4.6.862,6.138,1.083l.005,21.779C252.067,163.183,225.573,159.482,195.671,142.2Z" transform="translate(-109.363 -13.707)" fill="#fff"/>
  </g>
</svg>
