<svg xmlns="http://www.w3.org/2000/svg" width="17.929" height="20.917" viewBox="0 0 17.929 20.917">
  <path id="Icon_ionic-ios-git-network" data-name="Icon ionic-ios-git-network" d="M19.133,23.167a3.3,3.3,0,0,1-2.479-5.477,3.263,3.263,0,0,1,1.784-1.051V14.628l-4.973-2.587L8.5,14.628V16.64a3.3,3.3,0,1,1-3.18,1.051A3.263,3.263,0,0,1,7.1,16.64V13.96a.327.327,0,0,1,.182-.294l5.486-2.839V8.777a3.3,3.3,0,1,1,3.175-1.051A3.263,3.263,0,0,1,14.16,8.777v2.05l5.486,2.839a.327.327,0,0,1,.182.294v2.68a3.3,3.3,0,0,1-.7,6.527Zm-13.241-3.3a1.9,1.9,0,1,0,1.9-1.9A1.907,1.907,0,0,0,5.891,19.866ZM15.37,5.551a1.9,1.9,0,1,0-1.9,1.9A1.907,1.907,0,0,0,15.37,5.551Zm3.763,12.406a1.9,1.9,0,1,0,1.9,1.9A1.907,1.907,0,0,0,19.133,17.957Z" transform="translate(-4.5 -2.25)" fill="#9b9fa6"/>
</svg>
