<svg xmlns="http://www.w3.org/2000/svg" width="20.911" height="23.898" viewBox="0 0 20.911 23.898">
  <path id="Icon_awesome-calendar-check" data-name="Icon awesome-calendar-check" d="M20.351,7.468H.56A.56.56,0,0,1,0,6.908V5.228a2.24,2.24,0,0,1,2.24-2.24h2.24V.56A.56.56,0,0,1,5.041,0H6.908a.56.56,0,0,1,.56.56V2.987h5.974V.56A.56.56,0,0,1,14,0H15.87a.56.56,0,0,1,.56.56V2.987h2.24a2.24,2.24,0,0,1,2.24,2.24v1.68A.56.56,0,0,1,20.351,7.468ZM.56,8.962h19.79a.56.56,0,0,1,.56.56V21.657a2.24,2.24,0,0,1-2.24,2.24H2.24A2.24,2.24,0,0,1,0,21.657V9.522A.56.56,0,0,1,.56,8.962ZM16.117,13.44,14.8,12.115a.56.56,0,0,0-.792,0l-4.949,4.91L6.915,14.857a.56.56,0,0,0-.792,0L4.8,16.169a.56.56,0,0,0,0,.792l3.855,3.887a.56.56,0,0,0,.792,0l6.672-6.619a.56.56,0,0,0,0-.792Z" fill="#d41819"/>
</svg>
