<svg xmlns="http://www.w3.org/2000/svg" width="290.036" height="74.569" viewBox="0 0 290.036 74.569">
    <g id="Grupo_135" data-name="Grupo 135" transform="translate(-49.722 -13.707)">
        <g id="Grupo_36" data-name="Grupo 36" transform="translate(49.722 13.707)">
            <g id="Grupo_32" data-name="Grupo 32" transform="translate(0 68.777)">
                <rect id="Retângulo_16" data-name="Retângulo 16" width="83.091" height="5.791"/>
            </g>
            <g id="Grupo_33" data-name="Grupo 33" transform="translate(2.357 47.687)">
                <path id="Caminho_244" data-name="Caminho 244" d="M124.556,94.985a327.263,327.263,0,0,1-33.962-1.691c-13.077-1.4-26.721-3.875-37.617-8.381l2.217-5.348c10,4.155,23.25,6.615,36.016,7.973A322.32,322.32,0,0,0,124.554,89.2c3.187,0,5.779-.046,7.567-.092.631-.016,1.161-.031,1.584-.045l0,5.793C131.984,94.906,128.785,94.983,124.556,94.985Z" transform="translate(-52.977 -79.565)"/>
            </g>
            <g id="Grupo_34" data-name="Grupo 34" transform="translate(18.19 26.456)">
                <path id="Caminho_245" data-name="Caminho 245" d="M135.739,75.411h-.024a115.983,115.983,0,0,1-27.637-3.326C96.757,69.232,84.428,64,74.843,54.313l4.119-4.069c8.531,8.646,19.853,13.54,30.529,16.222a110.267,110.267,0,0,0,26.222,3.154c1.429,0,2.572-.03,3.374-.063.252-.01.465-.02.649-.029v5.8C138.868,75.366,137.5,75.411,135.739,75.411Z" transform="translate(-74.843 -50.244)"/>
            </g>
            <g id="Grupo_35" data-name="Grupo 35" transform="translate(43.185)">
                <path id="Caminho_246" data-name="Caminho 246" d="M132.5,48.147a45.856,45.856,0,0,1-13.419-11.758,54.282,54.282,0,0,1-9.715-21.4l5.646-1.282a48.462,48.462,0,0,0,8.656,19.149,40.455,40.455,0,0,0,17.38,13,40.252,40.252,0,0,0,6.565,1.964c.678.138,1.234.231,1.645.29v5.838A44.96,44.96,0,0,1,132.5,48.147Z" transform="translate(-109.363 -13.707)" fill="#c70013"/>
            </g>
        </g>
        <g id="Grupo_37" data-name="Grupo 37" transform="translate(139.417 45.949)">
            <path id="Caminho_247" data-name="Caminho 247" d="M173.926,71.079V61.448h5.843v.65h-5.113v3.8h4.355v.649h-4.355v3.882h5.113v.65Z" transform="translate(-173.687 -59.122)"/>
            <path id="Caminho_248" data-name="Caminho 248" d="M186.455,71.129a4.067,4.067,0,0,1-3.205-1.271l.514-.514a3.366,3.366,0,0,0,2.732,1.135c1.515,0,2.476-.729,2.476-1.988a1.741,1.741,0,0,0-.527-1.353,2.327,2.327,0,0,0-1.393-.514l-1.123-.175a3.339,3.339,0,0,1-1.717-.7,2.189,2.189,0,0,1-.758-1.772c0-1.61,1.149-2.637,2.989-2.637a3.806,3.806,0,0,1,2.773,1.041l-.473.474a3.133,3.133,0,0,0-2.34-.892,1.962,1.962,0,0,0-2.232,1.988,1.548,1.548,0,0,0,.5,1.258,3.081,3.081,0,0,0,1.434.6l1.041.162a3.063,3.063,0,0,1,1.718.636,2.367,2.367,0,0,1,.838,1.867C189.7,70.088,188.458,71.129,186.455,71.129Z" transform="translate(-176.26 -59.091)"/>
            <path id="Caminho_249" data-name="Caminho 249" d="M197.351,71.129a3.4,3.4,0,0,1-2.407-.987c-.879-.88-.893-1.731-.893-3.909s.014-3.03.893-3.909a3.4,3.4,0,0,1,2.407-.987,3.193,3.193,0,0,1,3.274,2.812h-.744a2.529,2.529,0,0,0-2.53-2.164,2.559,2.559,0,0,0-1.826.744c-.689.69-.744,1.434-.744,3.5s.054,2.814.744,3.5a2.6,2.6,0,0,0,4.383-1.42h.718A3.211,3.211,0,0,1,197.351,71.129Z" transform="translate(-179.24 -59.091)"/>
            <path id="Caminho_250" data-name="Caminho 250" d="M211.044,70.142a3.43,3.43,0,0,1-4.815,0c-.879-.88-.892-1.731-.892-3.909s.013-3.03.892-3.909a3.43,3.43,0,0,1,4.815,0c.88.879.894,1.731.894,3.909S211.924,69.262,211.044,70.142Zm-.581-7.412a2.613,2.613,0,0,0-3.652,0c-.69.69-.744,1.434-.744,3.5s.054,2.814.744,3.5a2.613,2.613,0,0,0,3.652,0c.691-.689.744-1.433.744-3.5S211.154,63.419,210.463,62.729Z" transform="translate(-182.354 -59.091)"/>
            <path id="Caminho_251" data-name="Caminho 251" d="M217.295,71.079V61.448h.731v8.981h5.113v.65Z" transform="translate(-185.653 -59.122)"/>
            <path id="Caminho_252" data-name="Caminho 252" d="M232.413,71.079l-.838-2.34h-4.491l-.839,2.34h-.784L229,61.448h.649l3.544,9.631Zm-3.084-8.657-2.015,5.667h4.03Z" transform="translate(-187.907 -59.122)"/>
            <path id="Caminho_253" data-name="Caminho 253" d="M247.393,70.2a3.322,3.322,0,0,1-2.406.88h-3.234V61.448h3.234a3.325,3.325,0,0,1,2.406.879c.975.974.935,2.5.935,3.8S248.368,69.226,247.393,70.2Zm-.513-7.358a2.769,2.769,0,0,0-2.069-.743h-2.327v8.331h2.327a2.767,2.767,0,0,0,2.069-.744c.77-.784.716-2.489.716-3.557S247.651,63.626,246.88,62.841Z" transform="translate(-192.402 -59.122)"/>
            <path id="Caminho_254" data-name="Caminho 254" d="M253.676,71.079V61.448h5.842v.65h-5.112v3.8h4.355v.649h-4.355v3.882h5.112v.65Z" transform="translate(-195.692 -59.122)"/>
            <path id="Caminho_255" data-name="Caminho 255" d="M268.85,62.1V66.06H273.2v.649H268.85v4.369h-.731V61.448h5.843v.65Z" transform="translate(-199.677 -59.122)"/>
            <path id="Caminho_256" data-name="Caminho 256" d="M282.946,70.142a3.43,3.43,0,0,1-4.815,0c-.879-.88-.894-1.731-.894-3.909s.014-3.03.894-3.909a3.43,3.43,0,0,1,4.815,0c.88.879.892,1.731.892,3.909S283.825,69.262,282.946,70.142Zm-.582-7.412a2.613,2.613,0,0,0-3.652,0c-.691.69-.744,1.434-.744,3.5s.053,2.814.744,3.5a2.613,2.613,0,0,0,3.652,0c.689-.689.744-1.433.744-3.5S283.053,63.419,282.363,62.729Z" transform="translate(-202.193 -59.091)"/>
            <path id="Caminho_257" data-name="Caminho 257" d="M294.876,71.079l-2.3-4.436h-2.651v4.436H289.2V61.448h3.666a2.607,2.607,0,0,1,.541,5.181l2.327,4.45ZM292.767,62.1h-2.841v3.895h2.841a1.955,1.955,0,1,0,0-3.895Z" transform="translate(-205.492 -59.122)"/>
            <path id="Caminho_258" data-name="Caminho 258" d="M308.083,71.079v-7.94l-2.922,6.587h-.73l-2.977-6.587v7.94h-.729V61.448h.729l3.355,7.426,3.273-7.426h.729v9.631Z" transform="translate(-208.674 -59.122)"/>
            <path id="Caminho_259" data-name="Caminho 259" d="M320.44,71.079l-.838-2.34H315.11l-.839,2.34h-.785l3.544-9.631h.649l3.544,9.631Zm-3.085-8.657-2.015,5.667h4.031Z" transform="translate(-212.195 -59.122)"/>
            <path id="Caminho_260" data-name="Caminho 260" d="M328.354,71.129a3.4,3.4,0,0,1-2.408-.987c-.878-.88-.892-1.731-.892-3.909s.014-3.03.892-3.909a3.4,3.4,0,0,1,2.408-.987,3.192,3.192,0,0,1,3.273,2.812h-.745a2.526,2.526,0,0,0-2.528-2.164,2.557,2.557,0,0,0-1.826.744c-.689.69-.744,1.434-.744,3.5s.055,2.814.744,3.5a2.6,2.6,0,0,0,4.383-1.42h.716A3.21,3.21,0,0,1,328.354,71.129Zm-.324,2.895h-.854l.975-2.029h.744Z" transform="translate(-215.386 -59.091)"/>
            <path id="Caminho_261" data-name="Caminho 261" d="M342.04,70.192l-.838-2.34H336.71l-.838,2.34h-.785l3.544-9.631h.65l3.544,9.631Zm-2.272-10.753a1.728,1.728,0,0,1-.934-.324,1.533,1.533,0,0,0-.757-.285c-.217,0-.379.028-.8.447l-.4-.392c.622-.622.933-.65,1.2-.65a1.56,1.56,0,0,1,.933.325,1.383,1.383,0,0,0,.757.284c.189,0,.392-.041.8-.447l.407.393C340.349,59.412,340.011,59.439,339.767,59.439Zm-.812,2.1L336.94,67.2h4.032Z" transform="translate(-218.154 -58.235)"/>
            <path id="Caminho_262" data-name="Caminho 262" d="M352.362,70.142a3.429,3.429,0,0,1-4.815,0c-.88-.88-.894-1.731-.894-3.909s.014-3.03.894-3.909a3.429,3.429,0,0,1,4.815,0c.88.879.892,1.731.892,3.909S353.241,69.262,352.362,70.142Zm-.582-7.412a2.612,2.612,0,0,0-3.651,0c-.691.69-.744,1.434-.744,3.5s.054,2.814.744,3.5a2.612,2.612,0,0,0,3.651,0c.69-.689.745-1.433.745-3.5S352.47,63.419,351.779,62.729Z" transform="translate(-221.346 -59.091)"/>
            <path id="Caminho_263" data-name="Caminho 263" d="M179.567,91.087a3.329,3.329,0,0,1-2.408.879h-3.233v-9.63h3.233a3.326,3.326,0,0,1,2.408.879c.973.974.933,2.5.933,3.8S180.54,90.113,179.567,91.087Zm-.514-7.358a2.765,2.765,0,0,0-2.069-.744h-2.326v8.331h2.326a2.765,2.765,0,0,0,2.069-.744c.771-.784.717-2.489.717-3.557S179.824,84.514,179.052,83.729Z" transform="translate(-173.687 -64.885)"/>
            <path id="Caminho_264" data-name="Caminho 264" d="M191.032,91.029a3.428,3.428,0,0,1-4.815,0c-.879-.879-.892-1.731-.892-3.909s.013-3.03.892-3.909a3.43,3.43,0,0,1,4.815,0c.879.88.894,1.731.894,3.909S191.911,90.15,191.032,91.029Zm-.581-7.412a2.614,2.614,0,0,0-3.652,0c-.689.689-.744,1.434-.744,3.5s.054,2.813.744,3.5a2.612,2.612,0,0,0,3.652,0c.69-.69.744-1.434.744-3.5S191.141,84.306,190.451,83.617Z" transform="translate(-176.832 -64.854)"/>
            <path id="Caminho_265" data-name="Caminho 265" d="M199.386,92.016a4.065,4.065,0,0,1-3.2-1.271l.514-.514a3.364,3.364,0,0,0,2.732,1.137c1.515,0,2.475-.731,2.475-1.989a1.743,1.743,0,0,0-.527-1.352,2.321,2.321,0,0,0-1.393-.514l-1.123-.176a3.339,3.339,0,0,1-1.717-.7,2.188,2.188,0,0,1-.758-1.772c0-1.61,1.149-2.637,2.989-2.637a3.805,3.805,0,0,1,2.772,1.041l-.473.474a3.129,3.129,0,0,0-2.34-.893,1.962,1.962,0,0,0-2.231,1.989,1.547,1.547,0,0,0,.5,1.257,3.069,3.069,0,0,0,1.434.6l1.04.162a3.064,3.064,0,0,1,1.718.636,2.367,2.367,0,0,1,.839,1.867C202.633,90.975,201.389,92.016,199.386,92.016Z" transform="translate(-179.828 -64.854)"/>
            <path id="Caminho_266" data-name="Caminho 266" d="M215.051,87.881h-2.8v4.085h-.73v-9.63h3.53a2.776,2.776,0,1,1,0,5.545Zm-.081-4.9h-2.719v4.247h2.719a2.127,2.127,0,1,0,0-4.247Z" transform="translate(-184.06 -64.885)"/>
            <path id="Caminho_267" data-name="Caminho 267" d="M228.244,91.966l-2.3-4.436h-2.652v4.436h-.73v-9.63h3.665a2.607,2.607,0,0,1,.541,5.18l2.326,4.45Zm-2.11-8.981h-2.841V86.88h2.841a1.955,1.955,0,1,0,0-3.895Z" transform="translate(-187.107 -64.885)"/>
            <path id="Caminho_268" data-name="Caminho 268" d="M239.278,91.029a3.428,3.428,0,0,1-4.815,0c-.878-.879-.893-1.731-.893-3.909s.014-3.03.893-3.909a3.43,3.43,0,0,1,4.815,0c.879.88.893,1.731.893,3.909S240.157,90.15,239.278,91.029Zm-.582-7.412a2.613,2.613,0,0,0-3.652,0c-.689.689-.744,1.434-.744,3.5s.054,2.813.744,3.5a2.611,2.611,0,0,0,3.652,0c.691-.69.744-1.434.744-3.5S239.387,84.306,238.7,83.617Z" transform="translate(-190.144 -64.854)"/>
            <path id="Caminho_269" data-name="Caminho 269" d="M246.259,82.985v3.962h4.355v.65h-4.355v4.369h-.73v-9.63h5.843v.65Z" transform="translate(-193.444 -64.885)"/>
            <path id="Caminho_270" data-name="Caminho 270" d="M255.545,91.966v-9.63h.73v9.63Z" transform="translate(-196.207 -64.885)"/>
            <path id="Caminho_271" data-name="Caminho 271" d="M262.019,92.016a4.066,4.066,0,0,1-3.206-1.271l.513-.514a3.366,3.366,0,0,0,2.733,1.137c1.515,0,2.476-.731,2.476-1.989a1.74,1.74,0,0,0-.528-1.352,2.325,2.325,0,0,0-1.394-.514l-1.122-.176a3.336,3.336,0,0,1-1.718-.7,2.191,2.191,0,0,1-.757-1.772c0-1.61,1.149-2.637,2.988-2.637a3.808,3.808,0,0,1,2.773,1.041l-.474.474a3.126,3.126,0,0,0-2.339-.893,1.963,1.963,0,0,0-2.232,1.989,1.545,1.545,0,0,0,.5,1.257,3.07,3.07,0,0,0,1.434.6l1.041.162a3.061,3.061,0,0,1,1.718.636,2.363,2.363,0,0,1,.839,1.867C265.266,90.975,264.021,92.016,262.019,92.016Z" transform="translate(-197.109 -64.854)"/>
            <path id="Caminho_272" data-name="Caminho 272" d="M271.867,92.016a4.065,4.065,0,0,1-3.206-1.271l.513-.514a3.364,3.364,0,0,0,2.732,1.137c1.515,0,2.476-.731,2.476-1.989a1.743,1.743,0,0,0-.527-1.352,2.325,2.325,0,0,0-1.394-.514l-1.122-.176a3.342,3.342,0,0,1-1.718-.7,2.191,2.191,0,0,1-.757-1.772c0-1.61,1.149-2.637,2.988-2.637a3.806,3.806,0,0,1,2.773,1.041l-.474.474a3.126,3.126,0,0,0-2.339-.893,1.964,1.964,0,0,0-2.232,1.989,1.545,1.545,0,0,0,.5,1.257,3.073,3.073,0,0,0,1.434.6l1.042.162a3.063,3.063,0,0,1,1.718.636,2.363,2.363,0,0,1,.838,1.867C275.113,90.975,273.868,92.016,271.867,92.016Z" transform="translate(-199.827 -64.854)"/>
            <path id="Caminho_273" data-name="Caminho 273" d="M279.983,91.966v-9.63h.731v9.63Z" transform="translate(-202.95 -64.885)"/>
            <path id="Caminho_274" data-name="Caminho 274" d="M289.541,91.029a3.428,3.428,0,0,1-4.815,0c-.879-.879-.893-1.731-.893-3.909s.014-3.03.893-3.909a3.43,3.43,0,0,1,4.815,0c.88.88.892,1.731.892,3.909S290.421,90.15,289.541,91.029Zm-.581-7.412a2.613,2.613,0,0,0-3.652,0c-.691.689-.744,1.434-.744,3.5s.053,2.813.744,3.5a2.611,2.611,0,0,0,3.652,0c.689-.69.744-1.434.744-3.5S289.649,84.306,288.96,83.617Z" transform="translate(-204.013 -64.854)"/>
            <path id="Caminho_275" data-name="Caminho 275" d="M302.081,91.966l-5.559-8.373v8.373h-.731v-9.63h.731l5.559,8.345V82.336h.73v9.63Z" transform="translate(-207.312 -64.885)"/>
            <path id="Caminho_276" data-name="Caminho 276" d="M314.03,91.966l-.839-2.34H308.7l-.839,2.34h-.785l3.544-9.63h.65l3.544,9.63Zm-3.085-8.656-2.015,5.667h4.032Z" transform="translate(-210.426 -64.885)"/>
            <path id="Caminho_277" data-name="Caminho 277" d="M319.354,91.966v-9.63h.731v9.63Z" transform="translate(-213.813 -64.885)"/>
            <path id="Caminho_278" data-name="Caminho 278" d="M325.829,92.016a4.067,4.067,0,0,1-3.206-1.271l.515-.514a3.362,3.362,0,0,0,2.731,1.137c1.516,0,2.475-.731,2.475-1.989a1.745,1.745,0,0,0-.526-1.352,2.323,2.323,0,0,0-1.393-.514l-1.123-.176a3.342,3.342,0,0,1-1.717-.7,2.188,2.188,0,0,1-.758-1.772c0-1.61,1.15-2.637,2.99-2.637a3.8,3.8,0,0,1,2.772,1.041l-.472.474a3.131,3.131,0,0,0-2.34-.893,1.963,1.963,0,0,0-2.232,1.989,1.543,1.543,0,0,0,.5,1.257,3.064,3.064,0,0,0,1.433.6l1.042.162a3.063,3.063,0,0,1,1.718.636,2.367,2.367,0,0,1,.838,1.867C329.076,90.975,327.832,92.016,325.829,92.016Z" transform="translate(-214.716 -64.854)"/>
            <path id="Caminho_279" data-name="Caminho 279" d="M343.6,91.087a3.33,3.33,0,0,1-2.408.879h-3.232v-9.63H341.2a3.327,3.327,0,0,1,2.408.879c.974.974.933,2.5.933,3.8S344.579,90.113,343.6,91.087Zm-.515-7.358a2.762,2.762,0,0,0-2.069-.744h-2.326v8.331h2.326a2.763,2.763,0,0,0,2.069-.744c.772-.784.717-2.489.717-3.557S343.862,84.514,343.09,83.729Z" transform="translate(-218.949 -64.885)"/>
            <path id="Caminho_280" data-name="Caminho 280" d="M354.876,91.966l-.838-2.34h-4.492l-.838,2.34h-.784l3.543-9.63h.65l3.543,9.63Zm-3.083-8.656-2.016,5.667h4.031Z" transform="translate(-221.697 -64.885)"/>
            <path id="Caminho_281" data-name="Caminho 281" d="M364.217,91.966v-9.63h5.843v.65h-5.113v3.8H369.3v.649h-4.356v3.882h5.113v.65Z" transform="translate(-226.192 -64.885)"/>
            <path id="Caminho_282" data-name="Caminho 282" d="M380.284,91.087a3.33,3.33,0,0,1-2.408.879h-3.232v-9.63h3.232a3.327,3.327,0,0,1,2.408.879c.973.974.933,2.5.933,3.8S381.257,90.113,380.284,91.087Zm-.514-7.358a2.765,2.765,0,0,0-2.07-.744h-2.326v8.331H377.7a2.765,2.765,0,0,0,2.07-.744c.771-.784.717-2.489.717-3.557S380.541,84.514,379.77,83.729Z" transform="translate(-229.069 -64.885)"/>
            <path id="Caminho_283" data-name="Caminho 283" d="M389.678,92.047a3.123,3.123,0,0,1-3.3-3.205V82.336h.731v6.411a2.571,2.571,0,1,0,5.14,0V82.336h.73v6.506A3.122,3.122,0,0,1,389.678,92.047Z" transform="translate(-232.307 -64.885)"/>
            <path id="Caminho_284" data-name="Caminho 284" d="M401.45,92.016a3.393,3.393,0,0,1-2.407-.988c-.88-.879-.894-1.731-.894-3.909s.014-3.03.894-3.909a3.393,3.393,0,0,1,2.407-.987,3.191,3.191,0,0,1,3.273,2.813h-.744a2.526,2.526,0,0,0-2.529-2.164,2.553,2.553,0,0,0-1.825.744c-.691.689-.744,1.434-.744,3.5s.054,2.813.744,3.5a2.6,2.6,0,0,0,4.381-1.42h.717A3.21,3.21,0,0,1,401.45,92.016Z" transform="translate(-235.555 -64.854)"/>
            <path id="Caminho_285" data-name="Caminho 285" d="M414.95,91.966l-.839-2.34H409.62l-.838,2.34H408l3.544-9.63h.65l3.544,9.63Zm-3.085-8.656-2.015,5.667h4.031Z" transform="translate(-238.272 -64.885)"/>
            <path id="Caminho_286" data-name="Caminho 286" d="M422.864,92.016a3.4,3.4,0,0,1-2.408-.988c-.878-.879-.893-1.731-.893-3.909s.014-3.03.893-3.909a3.4,3.4,0,0,1,2.408-.987,3.192,3.192,0,0,1,3.273,2.813h-.745a2.526,2.526,0,0,0-2.528-2.164,2.553,2.553,0,0,0-1.826.744c-.69.689-.744,1.434-.744,3.5s.054,2.813.744,3.5a2.6,2.6,0,0,0,4.382-1.42h.717A3.21,3.21,0,0,1,422.864,92.016Zm-.324,2.895h-.854l.975-2.03h.744Z" transform="translate(-241.463 -64.854)"/>
            <path id="Caminho_287" data-name="Caminho 287" d="M436.55,91.08l-.837-2.34h-4.492l-.838,2.34H429.6l3.543-9.63h.65l3.544,9.63Zm-2.273-10.753a1.726,1.726,0,0,1-.933-.325,1.54,1.54,0,0,0-.757-.285c-.215,0-.379.028-.8.447l-.406-.392c.622-.623.933-.649,1.2-.649a1.562,1.562,0,0,1,.934.324,1.386,1.386,0,0,0,.756.285c.19,0,.393-.041.8-.447l.405.392C434.859,80.3,434.521,80.327,434.277,80.327Zm-.811,2.1-2.015,5.667h4.031Z" transform="translate(-244.232 -63.998)"/>
            <path id="Caminho_288" data-name="Caminho 288" d="M446.872,91.029a3.428,3.428,0,0,1-4.815,0c-.879-.879-.894-1.731-.894-3.909s.014-3.03.894-3.909a3.43,3.43,0,0,1,4.815,0c.88.88.892,1.731.892,3.909S447.751,90.15,446.872,91.029Zm-.582-7.412a2.612,2.612,0,0,0-3.651,0c-.691.689-.744,1.434-.744,3.5s.054,2.813.744,3.5a2.61,2.61,0,0,0,3.651,0c.689-.69.744-1.434.744-3.5S446.979,84.306,446.289,83.617Z" transform="translate(-247.423 -64.854)"/>
            <path id="Caminho_289" data-name="Caminho 289" d="M180.341,106.14a2.992,2.992,0,0,1-.376,1.5,2.657,2.657,0,0,1-1.084,1.043,3.364,3.364,0,0,1-1.624.379h-2.187v3.786H173.6V103.22h3.657a3.584,3.584,0,0,1,1.269.222,2.828,2.828,0,0,1,.993.614,2.66,2.66,0,0,1,.615.919A3.091,3.091,0,0,1,180.341,106.14Zm-1.46,0a1.523,1.523,0,0,0-.465-1.18,1.756,1.756,0,0,0-1.24-.429h-2.107v3.2h2.107a1.765,1.765,0,0,0,1.243-.425A1.511,1.511,0,0,0,178.88,106.143Z" transform="translate(-173.596 -70.647)"/>
            <path id="Caminho_290" data-name="Caminho 290" d="M190.988,112.852h-1.557l-.661-1.936h-3.8l-.66,1.936H182.75l3.531-9.632h1.175Zm-2.627-3.177L186.9,105.4l-1.5,4.274Z" transform="translate(-176.122 -70.647)"/>
            <path id="Caminho_291" data-name="Caminho 291" d="M201.69,109.6a3.352,3.352,0,0,1-.45,1.738A3.083,3.083,0,0,1,200,112.516a3.972,3.972,0,0,1-3.538,0,3.085,3.085,0,0,1-1.235-1.176,3.338,3.338,0,0,1-.45-1.738V103.22h1.46v6.311a2.373,2.373,0,0,0,.245,1.106,1.719,1.719,0,0,0,.693.726,2.3,2.3,0,0,0,2.1,0,1.74,1.74,0,0,0,.7-.722,2.352,2.352,0,0,0,.248-1.109V103.22h1.46Z" transform="translate(-179.441 -70.647)"/>
            <path id="Caminho_292" data-name="Caminho 292" d="M212.663,112.852h-6.111V103.22h1.473v8.318h4.638Z" transform="translate(-182.689 -70.647)"/>
            <path id="Caminho_293" data-name="Caminho 293" d="M222.71,108q0,1.142-.043,1.746a4.067,4.067,0,0,1-.241,1.136,2.878,2.878,0,0,1-.634.986,3.648,3.648,0,0,1-5.074.005,2.888,2.888,0,0,1-.647-.984,4.031,4.031,0,0,1-.245-1.133q-.046-.611-.046-1.754,0-.879.022-1.394a6.558,6.558,0,0,1,.106-.945,3.1,3.1,0,0,1,.271-.8,2.953,2.953,0,0,1,.539-.73,3.442,3.442,0,0,1,2.531-1.024,3.483,3.483,0,0,1,2.543,1.023,2.87,2.87,0,0,1,.637.988,4.032,4.032,0,0,1,.238,1.132Q222.71,106.861,222.71,108Zm-1.46,0a12.78,12.78,0,0,0-.109-2.025,1.882,1.882,0,0,0-.46-.963,1.812,1.812,0,0,0-.637-.432,2.059,2.059,0,0,0-1.6,0,1.814,1.814,0,0,0-.638.432,1.948,1.948,0,0,0-.458.97,12.539,12.539,0,0,0-.109,2.018q0,.765.023,1.223a5.91,5.91,0,0,0,.089.8,2.252,2.252,0,0,0,.159.534,2.038,2.038,0,0,0,.3.428,1.892,1.892,0,0,0,.644.436,2.06,2.06,0,0,0,.8.158,1.888,1.888,0,0,0,1.433-.594,1.725,1.725,0,0,0,.36-.587,3.435,3.435,0,0,0,.166-.9Q221.249,108.943,221.25,108.007Z" transform="translate(-185.235 -70.617)"/>
            <path id="Caminho_294" data-name="Caminho 294" d="M237.788,112.852h-1.7l-2.03-4.05h-1.823v4.05h-1.474V103.22H234.5a3.318,3.318,0,0,1,1.571.361,2.555,2.555,0,0,1,1.051,1,2.868,2.868,0,0,1,.368,1.458,2.566,2.566,0,0,1-.533,1.657,2.625,2.625,0,0,1-1.384.9Zm-1.758-6.8a1.425,1.425,0,0,0-.446-1.111,1.7,1.7,0,0,0-1.193-.405h-2.16v3.013h2.16a1.719,1.719,0,0,0,1.19-.4A1.394,1.394,0,0,0,236.03,106.051Z" transform="translate(-189.368 -70.647)"/>
            <path id="Caminho_295" data-name="Caminho 295" d="M248.128,112.852h-6.163V103.22h6.163v1.315h-4.691v2.808h4v1.3h-4v2.893h4.691Z" transform="translate(-192.46 -70.647)"/>
            <path id="Caminho_296" data-name="Caminho 296" d="M259.465,112.852h-1.34l-4.447-6.778v6.778h-1.473V103.22h1.347l4.455,6.766V103.22h1.459Z" transform="translate(-195.286 -70.647)"/>
            <path id="Caminho_297" data-name="Caminho 297" d="M271.341,112.852h-1.557l-.66-1.936h-3.8l-.66,1.936H263.1l3.531-9.632h1.175Zm-2.627-3.177-1.459-4.274-1.5,4.274Z" transform="translate(-198.292 -70.647)"/>
            <path id="Caminho_298" data-name="Caminho 298" d="M280.92,104.535h-2.649v8.318h-1.461v-8.318h-2.657V103.22h6.766Z" transform="translate(-201.342 -70.647)"/>
            <path id="Caminho_299" data-name="Caminho 299" d="M291.216,108q0,1.142-.043,1.746a4.145,4.145,0,0,1-.241,1.136,2.892,2.892,0,0,1-.635.986,3.469,3.469,0,0,1-2.544,1.029,3.433,3.433,0,0,1-2.53-1.024,2.9,2.9,0,0,1-.648-.984,4.108,4.108,0,0,1-.244-1.133q-.046-.611-.046-1.754,0-.879.022-1.394a6.455,6.455,0,0,1,.107-.945,3.039,3.039,0,0,1,.269-.8,2.971,2.971,0,0,1,.539-.73,3.439,3.439,0,0,1,2.53-1.024,3.484,3.484,0,0,1,2.544,1.023,2.884,2.884,0,0,1,.638.988,4.108,4.108,0,0,1,.238,1.132Q291.215,106.861,291.216,108Zm-1.46,0a12.76,12.76,0,0,0-.109-2.025,1.886,1.886,0,0,0-.458-.963,1.841,1.841,0,0,0-.638-.432,2.061,2.061,0,0,0-1.6,0,1.8,1.8,0,0,0-.637.432,1.956,1.956,0,0,0-.459.97,12.568,12.568,0,0,0-.109,2.018c0,.51.007.917.022,1.223a5.8,5.8,0,0,0,.088.8,2.241,2.241,0,0,0,.16.534,1.984,1.984,0,0,0,.3.428,1.882,1.882,0,0,0,.644.436,2.056,2.056,0,0,0,.8.158,1.894,1.894,0,0,0,1.435-.594,1.783,1.783,0,0,0,.36-.587,3.472,3.472,0,0,0,.164-.9C289.74,109.132,289.756,108.631,289.756,108.007Z" transform="translate(-204.137 -70.617)"/>
            <path id="Caminho_300" data-name="Caminho 300" d="M305.693,109.938a3.947,3.947,0,0,1-.427,1.273,3.2,3.2,0,0,1-.752.933,3.094,3.094,0,0,1-1.025.565,3.87,3.87,0,0,1-1.232.192,3.778,3.778,0,0,1-.948-.115,3.378,3.378,0,0,1-.855-.353,3.466,3.466,0,0,1-.726-.555,2.87,2.87,0,0,1-.648-.984,3.982,3.982,0,0,1-.245-1.133q-.048-.611-.047-1.754,0-.879.025-1.394a6.654,6.654,0,0,1,.1-.945,3.019,3.019,0,0,1,.272-.8,2.917,2.917,0,0,1,.539-.73,3.442,3.442,0,0,1,1.142-.763,3.648,3.648,0,0,1,1.387-.261,3.412,3.412,0,0,1,2.269.768,3.543,3.543,0,0,1,1.166,2.2H304.2a2.219,2.219,0,0,0-.671-1.2,1.837,1.837,0,0,0-1.272-.445,2.1,2.1,0,0,0-.8.151,1.752,1.752,0,0,0-.631.429,1.878,1.878,0,0,0-.3.425,2.276,2.276,0,0,0-.171.567,5.892,5.892,0,0,0-.089.8c-.017.294-.024.7-.024,1.213s.007.911.024,1.2a5.949,5.949,0,0,0,.089.794,2.175,2.175,0,0,0,.171.564,2.478,2.478,0,0,0,.3.439,1.838,1.838,0,0,0,.631.425,2.046,2.046,0,0,0,.8.155,1.979,1.979,0,0,0,.918-.2,1.817,1.817,0,0,0,.662-.581,2.432,2.432,0,0,0,.376-.864Z" transform="translate(-208.139 -70.617)"/>
            <path id="Caminho_301" data-name="Caminho 301" d="M316.424,108q0,1.142-.042,1.746a4.1,4.1,0,0,1-.241,1.136,2.887,2.887,0,0,1-.634.986,3.474,3.474,0,0,1-2.544,1.029,3.43,3.43,0,0,1-2.529-1.024,2.87,2.87,0,0,1-.648-.984,4.005,4.005,0,0,1-.244-1.133q-.048-.611-.047-1.754,0-.879.024-1.394a6.558,6.558,0,0,1,.106-.945,3.045,3.045,0,0,1,.271-.8,2.933,2.933,0,0,1,.539-.73,3.436,3.436,0,0,1,2.529-1.024,3.489,3.489,0,0,1,2.544,1.023,2.913,2.913,0,0,1,.637.988,4.084,4.084,0,0,1,.238,1.132Q316.426,106.861,316.424,108Zm-1.459,0a12.559,12.559,0,0,0-.11-2.025,1.874,1.874,0,0,0-.458-.963,1.828,1.828,0,0,0-.638-.432,2.058,2.058,0,0,0-1.6,0,1.8,1.8,0,0,0-.638.432,1.962,1.962,0,0,0-.46.97,12.66,12.66,0,0,0-.109,2.018c0,.51.007.917.024,1.223a5.59,5.59,0,0,0,.088.8,2.215,2.215,0,0,0,.159.534,2.072,2.072,0,0,0,.3.428,1.881,1.881,0,0,0,.644.436,2.059,2.059,0,0,0,.8.158,1.889,1.889,0,0,0,1.434-.594,1.76,1.76,0,0,0,.36-.587,3.443,3.443,0,0,0,.164-.9Q314.965,108.943,314.965,108.007Z" transform="translate(-211.093 -70.617)"/>
            <path id="Caminho_302" data-name="Caminho 302" d="M326.722,110.074a2.713,2.713,0,0,1-.251,1.172,2.5,2.5,0,0,1-.723.905,3.276,3.276,0,0,1-1.1.562,4.82,4.82,0,0,1-1.387.188,5.637,5.637,0,0,1-1.919-.295,4.055,4.055,0,0,1-1.5-.98l.978-.964a3.011,3.011,0,0,0,.71.542,2.827,2.827,0,0,0,.822.3,4.818,4.818,0,0,0,.932.086,2.419,2.419,0,0,0,1.46-.389,1.43,1.43,0,0,0,.146-2.085,1.167,1.167,0,0,0-.4-.26,3.1,3.1,0,0,0-.651-.148l-1.137-.159a3.293,3.293,0,0,1-1.83-.773,2.39,2.39,0,0,1-.7-1.836,2.788,2.788,0,0,1,.389-1.479,2.6,2.6,0,0,1,1.117-.994,3.881,3.881,0,0,1,1.711-.353,4.814,4.814,0,0,1,1.678.262,3.92,3.92,0,0,1,1.316.833l-.94.926a2.416,2.416,0,0,0-.621-.446,2.734,2.734,0,0,0-.687-.231,4.11,4.11,0,0,0-.786-.07,2.15,2.15,0,0,0-.944.191,1.389,1.389,0,0,0-.6.531,1.447,1.447,0,0,0-.208.775,1.137,1.137,0,0,0,.363.9,1.809,1.809,0,0,0,.468.274,2.53,2.53,0,0,0,.615.168l1.1.165a4.979,4.979,0,0,1,1.082.266,2.309,2.309,0,0,1,.715.445A2.485,2.485,0,0,1,326.722,110.074Z" transform="translate(-213.949 -70.617)"/>
            <path id="Caminho_303" data-name="Caminho 303" d="M336.6,104.535h-2.65v8.318H332.5v-8.318H329.84V103.22H336.6Z" transform="translate(-216.707 -70.647)"/>
            <path id="Caminho_304" data-name="Caminho 304" d="M347.113,112.852h-1.557l-.661-1.936h-3.8l-.66,1.936h-1.558l3.531-9.632h1.174Zm-2.627-3.177-1.459-4.274-1.5,4.274Z" transform="translate(-219.2 -70.647)"/>
            <path id="Caminho_305" data-name="Caminho 305" d="M360.266,110.074a2.713,2.713,0,0,1-.251,1.172,2.5,2.5,0,0,1-.724.905,3.265,3.265,0,0,1-1.1.562,4.822,4.822,0,0,1-1.387.188,5.64,5.64,0,0,1-1.92-.295,4.05,4.05,0,0,1-1.5-.98l.977-.964a2.989,2.989,0,0,0,.712.542,2.834,2.834,0,0,0,.82.3,4.848,4.848,0,0,0,.933.086,2.417,2.417,0,0,0,1.459-.389,1.429,1.429,0,0,0,.146-2.085,1.157,1.157,0,0,0-.4-.26,3.1,3.1,0,0,0-.652-.148l-1.135-.159a3.289,3.289,0,0,1-1.83-.773,2.386,2.386,0,0,1-.7-1.836,2.789,2.789,0,0,1,.39-1.479,2.594,2.594,0,0,1,1.117-.994,3.871,3.871,0,0,1,1.71-.353,4.811,4.811,0,0,1,1.678.262,3.915,3.915,0,0,1,1.315.833l-.938.926a2.431,2.431,0,0,0-.621-.446,2.773,2.773,0,0,0-.687-.231,4.123,4.123,0,0,0-.786-.07,2.155,2.155,0,0,0-.945.191,1.4,1.4,0,0,0-.6.531,1.452,1.452,0,0,0-.208.775,1.14,1.14,0,0,0,.363.9,1.822,1.822,0,0,0,.469.274,2.511,2.511,0,0,0,.615.168l1.1.165a4.945,4.945,0,0,1,1.08.266,2.323,2.323,0,0,1,.718.445A2.489,2.489,0,0,1,360.266,110.074Z" transform="translate(-223.204 -70.617)"/>
            <path id="Caminho_306" data-name="Caminho 306" d="M371.005,108q0,1.142-.043,1.746a4.068,4.068,0,0,1-.241,1.136,2.889,2.889,0,0,1-.634.986,3.474,3.474,0,0,1-2.544,1.029,3.431,3.431,0,0,1-2.53-1.024,2.88,2.88,0,0,1-.648-.984,4.009,4.009,0,0,1-.244-1.133q-.048-.611-.047-1.754,0-.879.024-1.394a6.662,6.662,0,0,1,.106-.945,3.041,3.041,0,0,1,.271-.8,2.936,2.936,0,0,1,.539-.73,3.436,3.436,0,0,1,2.53-1.024,3.489,3.489,0,0,1,2.544,1.023,2.928,2.928,0,0,1,.638.988,4.11,4.11,0,0,1,.237,1.132Q371.006,106.861,371.005,108Zm-1.46,0a12.587,12.587,0,0,0-.109-2.025,1.882,1.882,0,0,0-.458-.963,1.828,1.828,0,0,0-.638-.432,2.058,2.058,0,0,0-1.6,0,1.8,1.8,0,0,0-.638.432,1.962,1.962,0,0,0-.46.97,12.746,12.746,0,0,0-.109,2.018q0,.765.024,1.223a5.6,5.6,0,0,0,.088.8,2.252,2.252,0,0,0,.159.534,2.074,2.074,0,0,0,.3.428,1.885,1.885,0,0,0,.644.436,2.056,2.056,0,0,0,.8.158,1.889,1.889,0,0,0,1.434-.594,1.759,1.759,0,0,0,.36-.587,3.414,3.414,0,0,0,.164-.9Q369.545,108.943,369.545,108.007Z" transform="translate(-226.153 -70.617)"/>
            <path id="Caminho_307" data-name="Caminho 307" d="M382.311,109.6a3.351,3.351,0,0,1-.448,1.738,3.083,3.083,0,0,1-1.24,1.176,3.97,3.97,0,0,1-3.537,0,3.1,3.1,0,0,1-1.236-1.176,3.352,3.352,0,0,1-.449-1.738V103.22h1.46v6.311a2.364,2.364,0,0,0,.245,1.106,1.716,1.716,0,0,0,.694.726,2.3,2.3,0,0,0,2.1,0,1.75,1.75,0,0,0,.7-.722,2.353,2.353,0,0,0,.248-1.109V103.22h1.459Z" transform="translate(-229.278 -70.647)"/>
            <path id="Caminho_308" data-name="Caminho 308" d="M392.515,112.852h-6.17V111.6l4.452-7.062h-4.261V103.22h5.979v1.2l-4.479,7.122h4.479Z" transform="translate(-232.298 -70.647)"/>
            <path id="Caminho_309" data-name="Caminho 309" d="M403.126,112.852h-1.558l-.66-1.936h-3.8l-.659,1.936h-1.559l3.533-9.632h1.174Zm-2.628-3.177-1.459-4.274-1.5,4.274Z" transform="translate(-234.654 -70.647)"/>
        </g>
    </g>
</svg>
