<svg id="Grupo_1" data-name="Grupo 1"
    xmlns="http://www.w3.org/2000/svg" width="248.134" height="63.796" viewBox="0 0 248.134 63.796">
    <g id="Grupo_36" data-name="Grupo 36" transform="translate(0)">
        <g id="Grupo_32" data-name="Grupo 32" transform="translate(0 58.841)">
            <rect id="Retângulo_16" data-name="Retângulo 16" width="71.087" height="4.955" fill="#fff"/>
        </g>
        <g id="Grupo_33" data-name="Grupo 33" transform="translate(2.016 40.797)">
            <path id="Caminho_244" data-name="Caminho 244" d="M114.215,92.757A279.983,279.983,0,0,1,85.16,91.311C73.972,90.11,62.3,88,52.977,84.14l1.9-4.575c8.558,3.555,19.891,5.66,30.813,6.821A275.759,275.759,0,0,0,114.213,87.8c2.727,0,4.944-.039,6.474-.079.54-.014.994-.027,1.355-.038l0,4.956C120.57,92.69,117.833,92.755,114.215,92.757Z" transform="translate(-52.977 -79.565)" fill="#fff"/>
        </g>
        <g id="Grupo_34" data-name="Grupo 34" transform="translate(15.562 22.634)">
            <path id="Caminho_245" data-name="Caminho 245" d="M126.941,71.775h-.02a99.227,99.227,0,0,1-23.645-2.845c-9.685-2.441-20.233-6.915-28.433-15.2l3.524-3.481c7.3,7.4,16.985,11.584,26.119,13.879a94.337,94.337,0,0,0,22.434,2.7c1.222,0,2.2-.026,2.886-.054.216-.009.4-.017.555-.025V71.7C129.619,71.737,128.446,71.775,126.941,71.775Z" transform="translate(-74.843 -50.244)" fill="#fff"/>
        </g>
        <g id="Grupo_35" data-name="Grupo 35" transform="translate(36.946)">
            <path id="Caminho_246" data-name="Caminho 246" d="M129.155,43.172a39.232,39.232,0,0,1-11.48-10.06A46.439,46.439,0,0,1,109.363,14.8l4.831-1.1A41.461,41.461,0,0,0,121.6,30.09a34.61,34.61,0,0,0,14.869,11.125,34.435,34.435,0,0,0,5.616,1.681c.58.118,1.056.2,1.407.248v4.994A38.465,38.465,0,0,1,129.155,43.172Z" transform="translate(-109.363 -13.707)" fill="#c70013"/>
        </g>
    </g>
    <g id="Grupo_37" data-name="Grupo 37" transform="translate(76.737 27.584)">
        <path id="Caminho_247" data-name="Caminho 247" d="M173.926,69.688v-8.24h5V62h-4.374v3.251h3.726v.556h-3.726v3.321h4.374v.556Z" transform="translate(-173.722 -59.458)" fill="#fff"/>
        <path id="Caminho_248" data-name="Caminho 248" d="M185.992,69.714a3.48,3.48,0,0,1-2.742-1.087l.44-.44a2.88,2.88,0,0,0,2.337.971c1.3,0,2.118-.624,2.118-1.7a1.489,1.489,0,0,0-.451-1.157,1.991,1.991,0,0,0-1.192-.44l-.961-.15a2.857,2.857,0,0,1-1.469-.6,1.873,1.873,0,0,1-.649-1.516,2.254,2.254,0,0,1,2.557-2.256,3.256,3.256,0,0,1,2.372.89l-.4.405a2.68,2.68,0,0,0-2-.763,1.679,1.679,0,0,0-1.909,1.7,1.324,1.324,0,0,0,.428,1.076,2.636,2.636,0,0,0,1.227.51l.891.139a2.621,2.621,0,0,1,1.47.544,2.025,2.025,0,0,1,.717,1.6C188.77,68.823,187.706,69.714,185.992,69.714Z" transform="translate(-177.27 -59.415)" fill="#fff"/>
        <path id="Caminho_249" data-name="Caminho 249" d="M196.874,69.714a2.9,2.9,0,0,1-2.059-.844c-.752-.753-.764-1.481-.764-3.345s.012-2.592.764-3.344a2.9,2.9,0,0,1,2.059-.844,2.732,2.732,0,0,1,2.8,2.406h-.637a2.163,2.163,0,0,0-2.164-1.851,2.189,2.189,0,0,0-1.562.636c-.59.59-.636,1.227-.636,3s.046,2.407.636,3a2.224,2.224,0,0,0,3.75-1.215h.614A2.748,2.748,0,0,1,196.874,69.714Z" transform="translate(-181.38 -59.415)" fill="#fff"/>
        <path id="Caminho_250" data-name="Caminho 250" d="M210.22,68.87a2.934,2.934,0,0,1-4.119,0c-.752-.753-.763-1.481-.763-3.345s.011-2.592.763-3.344a2.935,2.935,0,0,1,4.119,0c.753.752.764,1.481.764,3.344S210.972,68.117,210.22,68.87Zm-.5-6.342a2.236,2.236,0,0,0-3.124,0c-.59.59-.637,1.227-.637,3s.046,2.407.637,3a2.236,2.236,0,0,0,3.124,0c.591-.59.637-1.226.637-3S210.313,63.119,209.722,62.528Z" transform="translate(-185.674 -59.415)" fill="#fff"/>
        <path id="Caminho_251" data-name="Caminho 251" d="M217.295,69.688v-8.24h.625v7.684h4.374v.556Z" transform="translate(-190.225 -59.458)" fill="#fff"/>
        <path id="Caminho_252" data-name="Caminho 252" d="M231.409,69.688l-.717-2H226.85l-.718,2h-.671l3.032-8.24h.555l3.032,8.24Zm-2.638-7.406-1.724,4.849h3.448Z" transform="translate(-193.332 -59.458)" fill="#fff"/>
        <path id="Caminho_253" data-name="Caminho 253" d="M246.578,68.935a2.842,2.842,0,0,1-2.059.753h-2.767v-8.24h2.767a2.844,2.844,0,0,1,2.059.752c.834.833.8,2.141.8,3.252S247.413,68.1,246.578,68.935Zm-.439-6.3a2.369,2.369,0,0,0-1.77-.636h-1.991v7.128h1.991a2.367,2.367,0,0,0,1.77-.637c.659-.671.613-2.129.613-3.043S246.8,63.311,246.139,62.64Z" transform="translate(-199.532 -59.458)" fill="#fff"/>
        <path id="Caminho_254" data-name="Caminho 254" d="M253.676,69.688v-8.24h5V62H254.3v3.251h3.725v.556H254.3v3.321h4.373v.556Z" transform="translate(-204.069 -59.458)" fill="#fff"/>
        <path id="Caminho_255" data-name="Caminho 255" d="M268.744,62v3.39h3.726v.556h-3.726v3.738h-.625v-8.24h5V62Z" transform="translate(-209.565 -59.458)" fill="#fff"/>
        <path id="Caminho_256" data-name="Caminho 256" d="M282.121,68.87a2.934,2.934,0,0,1-4.119,0c-.752-.753-.764-1.481-.764-3.345s.012-2.592.764-3.344a2.935,2.935,0,0,1,4.119,0c.753.752.763,1.481.763,3.344S282.874,68.117,282.121,68.87Zm-.5-6.342a2.236,2.236,0,0,0-3.124,0c-.591.59-.636,1.227-.636,3s.045,2.407.636,3a2.236,2.236,0,0,0,3.124,0c.59-.59.637-1.226.637-3S282.213,63.119,281.623,62.528Z" transform="translate(-213.034 -59.415)" fill="#fff"/>
        <path id="Caminho_257" data-name="Caminho 257" d="M294.055,69.688l-1.967-3.8H289.82v3.8H289.2v-8.24h3.136a2.231,2.231,0,0,1,.463,4.432l1.991,3.807ZM292.251,62H289.82v3.332h2.431a1.672,1.672,0,1,0,0-3.332Z" transform="translate(-217.585 -59.458)" fill="#fff"/>
        <path id="Caminho_258" data-name="Caminho 258" d="M307.02,69.688V62.894l-2.5,5.635H303.9l-2.547-5.635v6.793h-.624v-8.24h.624L304.22,67.8l2.8-6.353h.624v8.24Z" transform="translate(-221.972 -59.458)" fill="#fff"/>
        <path id="Caminho_259" data-name="Caminho 259" d="M319.436,69.688l-.717-2h-3.843l-.717,2h-.671l3.032-8.24h.556l3.032,8.24ZM316.8,62.281l-1.724,4.849h3.449Z" transform="translate(-226.828 -59.458)" fill="#fff"/>
        <path id="Caminho_260" data-name="Caminho 260" d="M327.878,69.714a2.908,2.908,0,0,1-2.06-.844c-.751-.753-.763-1.481-.763-3.345s.012-2.592.763-3.344a2.908,2.908,0,0,1,2.06-.844,2.731,2.731,0,0,1,2.8,2.406h-.637a2.161,2.161,0,0,0-2.163-1.851,2.188,2.188,0,0,0-1.562.636c-.59.59-.637,1.227-.637,3s.047,2.407.637,3a2.224,2.224,0,0,0,3.75-1.215h.613A2.746,2.746,0,0,1,327.878,69.714Zm-.278,2.477h-.73l.834-1.736h.636Z" transform="translate(-231.23 -59.415)" fill="#fff"/>
        <path id="Caminho_261" data-name="Caminho 261" d="M341.035,68.465l-.717-2h-3.842l-.717,2h-.672l3.032-8.24h.556l3.032,8.24Zm-1.944-9.2a1.479,1.479,0,0,1-.8-.278,1.312,1.312,0,0,0-.647-.243c-.185,0-.324.024-.683.382l-.346-.336c.532-.532.8-.556,1.03-.556a1.334,1.334,0,0,1,.8.278,1.183,1.183,0,0,0,.648.243c.162,0,.335-.035.682-.382l.348.336C339.589,59.242,339.3,59.265,339.091,59.265Zm-.694,1.793-1.725,4.849h3.449Z" transform="translate(-235.048 -58.235)" fill="#fff"/>
        <path id="Caminho_262" data-name="Caminho 262" d="M351.537,68.87a2.934,2.934,0,0,1-4.119,0c-.753-.753-.765-1.481-.765-3.345s.012-2.592.765-3.344a2.934,2.934,0,0,1,4.119,0c.753.752.763,1.481.763,3.344S352.29,68.117,351.537,68.87Zm-.5-6.342a2.235,2.235,0,0,0-3.123,0c-.591.59-.637,1.227-.637,3s.046,2.407.637,3a2.235,2.235,0,0,0,3.123,0c.59-.59.637-1.226.637-3S351.629,63.119,351.039,62.528Z" transform="translate(-239.449 -59.415)" fill="#fff"/>
        <path id="Caminho_263" data-name="Caminho 263" d="M178.752,89.823a2.848,2.848,0,0,1-2.06.752h-2.766V82.336h2.766a2.846,2.846,0,0,1,2.06.752c.833.833.8,2.14.8,3.252S179.584,88.99,178.752,89.823Zm-.44-6.3a2.366,2.366,0,0,0-1.77-.636h-1.99v7.128h1.99a2.366,2.366,0,0,0,1.77-.636c.66-.671.613-2.13.613-3.043S178.972,84.2,178.312,83.528Z" transform="translate(-173.722 -67.406)" fill="#fff"/>
        <path id="Caminho_264" data-name="Caminho 264" d="M190.208,89.757a2.933,2.933,0,0,1-4.119,0c-.752-.752-.763-1.481-.763-3.344s.011-2.592.763-3.345a2.935,2.935,0,0,1,4.119,0c.752.753.764,1.481.764,3.345S190.96,89,190.208,89.757Zm-.5-6.341a2.236,2.236,0,0,0-3.125,0c-.59.59-.636,1.227-.636,3s.046,2.407.636,3a2.235,2.235,0,0,0,3.125,0c.59-.59.637-1.227.637-3S190.3,84.006,189.71,83.416Z" transform="translate(-178.059 -67.363)" fill="#fff"/>
        <path id="Caminho_265" data-name="Caminho 265" d="M198.923,90.6a3.478,3.478,0,0,1-2.742-1.088l.44-.44a2.878,2.878,0,0,0,2.337.973c1.3,0,2.117-.625,2.117-1.7a1.491,1.491,0,0,0-.451-1.157,1.985,1.985,0,0,0-1.192-.44l-.961-.151A2.857,2.857,0,0,1,197,86a1.872,1.872,0,0,1-.649-1.516,2.254,2.254,0,0,1,2.557-2.256,3.256,3.256,0,0,1,2.372.891l-.4.405a2.677,2.677,0,0,0-2-.764,1.679,1.679,0,0,0-1.909,1.7,1.323,1.323,0,0,0,.427,1.075,2.626,2.626,0,0,0,1.227.509l.89.139a2.621,2.621,0,0,1,1.47.544,2.025,2.025,0,0,1,.717,1.6C201.7,89.711,200.636,90.6,198.923,90.6Z" transform="translate(-182.19 -67.363)" fill="#fff"/>
        <path id="Caminho_266" data-name="Caminho 266" d="M214.541,87.08h-2.4v3.5h-.624V82.336h3.02a2.375,2.375,0,1,1,0,4.744Zm-.069-4.188h-2.326v3.633h2.326a1.82,1.82,0,1,0,0-3.633Z" transform="translate(-188.027 -67.406)" fill="#fff"/>
        <path id="Caminho_267" data-name="Caminho 267" d="M227.424,90.575l-1.967-3.8h-2.269v3.8h-.624V82.336H225.7a2.23,2.23,0,0,1,.463,4.432l1.99,3.807Zm-1.805-7.683h-2.43v3.332h2.43a1.672,1.672,0,1,0,0-3.332Z" transform="translate(-192.23 -67.406)" fill="#fff"/>
        <path id="Caminho_268" data-name="Caminho 268" d="M238.453,89.757a2.933,2.933,0,0,1-4.12,0c-.751-.752-.764-1.481-.764-3.344s.012-2.592.764-3.345a2.935,2.935,0,0,1,4.12,0c.752.753.764,1.481.764,3.345S239.205,89,238.453,89.757Zm-.5-6.341a2.236,2.236,0,0,0-3.124,0c-.59.59-.636,1.227-.636,3s.046,2.407.636,3a2.234,2.234,0,0,0,3.124,0c.591-.59.636-1.227.636-3S238.546,84.006,237.955,83.416Z" transform="translate(-196.418 -67.363)" fill="#fff"/>
        <path id="Caminho_269" data-name="Caminho 269" d="M246.153,82.892v3.39h3.726v.556h-3.726v3.738h-.624V82.336h5v.556Z" transform="translate(-200.968 -67.406)" fill="#fff"/>
        <path id="Caminho_270" data-name="Caminho 270" d="M255.545,90.575V82.336h.624v8.239Z" transform="translate(-204.78 -67.406)" fill="#fff"/>
        <path id="Caminho_271" data-name="Caminho 271" d="M261.556,90.6a3.478,3.478,0,0,1-2.742-1.088l.439-.44a2.879,2.879,0,0,0,2.338.973c1.3,0,2.118-.625,2.118-1.7a1.489,1.489,0,0,0-.452-1.157,1.989,1.989,0,0,0-1.193-.44l-.96-.151a2.854,2.854,0,0,1-1.47-.6,1.874,1.874,0,0,1-.647-1.516,2.253,2.253,0,0,1,2.557-2.256,3.258,3.258,0,0,1,2.373.891l-.406.405a2.675,2.675,0,0,0-2-.764,1.679,1.679,0,0,0-1.909,1.7,1.322,1.322,0,0,0,.428,1.075,2.626,2.626,0,0,0,1.227.509l.891.139a2.618,2.618,0,0,1,1.469.544,2.022,2.022,0,0,1,.718,1.6C264.333,89.711,263.269,90.6,261.556,90.6Z" transform="translate(-206.024 -67.363)" fill="#fff"/>
        <path id="Caminho_272" data-name="Caminho 272" d="M271.4,90.6a3.477,3.477,0,0,1-2.742-1.088l.439-.44a2.878,2.878,0,0,0,2.337.973c1.3,0,2.118-.625,2.118-1.7a1.491,1.491,0,0,0-.451-1.157,1.989,1.989,0,0,0-1.192-.44l-.96-.151a2.859,2.859,0,0,1-1.47-.6,1.874,1.874,0,0,1-.647-1.516,2.253,2.253,0,0,1,2.557-2.256,3.256,3.256,0,0,1,2.373.891l-.405.405a2.675,2.675,0,0,0-2-.764,1.68,1.68,0,0,0-1.91,1.7,1.322,1.322,0,0,0,.428,1.075,2.629,2.629,0,0,0,1.227.509l.891.139a2.62,2.62,0,0,1,1.469.544,2.021,2.021,0,0,1,.717,1.6C274.181,89.711,273.116,90.6,271.4,90.6Z" transform="translate(-209.771 -67.363)" fill="#fff"/>
        <path id="Caminho_273" data-name="Caminho 273" d="M279.983,90.575V82.336h.625v8.239Z" transform="translate(-214.079 -67.406)" fill="#fff"/>
        <path id="Caminho_274" data-name="Caminho 274" d="M288.716,89.757a2.933,2.933,0,0,1-4.12,0c-.752-.752-.764-1.481-.764-3.344s.012-2.592.764-3.345a2.935,2.935,0,0,1,4.12,0c.753.753.763,1.481.763,3.345S289.469,89,288.716,89.757Zm-.5-6.341a2.236,2.236,0,0,0-3.124,0c-.591.59-.636,1.227-.636,3s.045,2.407.636,3a2.234,2.234,0,0,0,3.124,0c.59-.59.636-1.227.636-3S288.809,84.006,288.219,83.416Z" transform="translate(-215.544 -67.363)" fill="#fff"/>
        <path id="Caminho_275" data-name="Caminho 275" d="M301.172,90.575l-4.756-7.163v7.163h-.625V82.336h.625l4.756,7.139V82.336h.624v8.239Z" transform="translate(-220.094 -67.406)" fill="#fff"/>
        <path id="Caminho_276" data-name="Caminho 276" d="M313.026,90.575l-.718-2h-3.842l-.717,2h-.672l3.032-8.239h.556l3.032,8.239Zm-2.639-7.406-1.724,4.848h3.449Z" transform="translate(-224.389 -67.406)" fill="#fff"/>
        <path id="Caminho_277" data-name="Caminho 277" d="M319.354,90.575V82.336h.625v8.239Z" transform="translate(-229.061 -67.406)" fill="#fff"/>
        <path id="Caminho_278" data-name="Caminho 278" d="M325.366,90.6a3.479,3.479,0,0,1-2.742-1.088l.44-.44a2.876,2.876,0,0,0,2.337.973c1.3,0,2.117-.625,2.117-1.7a1.493,1.493,0,0,0-.45-1.157,1.987,1.987,0,0,0-1.192-.44l-.961-.151a2.859,2.859,0,0,1-1.469-.6,1.872,1.872,0,0,1-.648-1.516,2.254,2.254,0,0,1,2.558-2.256,3.252,3.252,0,0,1,2.371.891l-.4.405a2.679,2.679,0,0,0-2-.764,1.679,1.679,0,0,0-1.909,1.7,1.32,1.32,0,0,0,.429,1.075,2.621,2.621,0,0,0,1.226.509l.891.139a2.62,2.62,0,0,1,1.469.544,2.025,2.025,0,0,1,.717,1.6C328.143,89.711,327.079,90.6,325.366,90.6Z" transform="translate(-230.305 -67.363)" fill="#fff"/>
        <path id="Caminho_279" data-name="Caminho 279" d="M342.79,89.823a2.849,2.849,0,0,1-2.06.752h-2.765V82.336h2.765a2.846,2.846,0,0,1,2.06.752c.833.833.8,2.14.8,3.252S343.623,88.99,342.79,89.823Zm-.44-6.3a2.363,2.363,0,0,0-1.77-.636h-1.99v7.128h1.99a2.363,2.363,0,0,0,1.77-.636c.66-.671.614-2.13.614-3.043S343.01,84.2,342.35,83.528Z" transform="translate(-236.143 -67.406)" fill="#fff"/>
        <path id="Caminho_280" data-name="Caminho 280" d="M353.872,90.575l-.717-2h-3.843l-.717,2h-.671l3.031-8.239h.556l3.031,8.239Zm-2.638-7.406-1.725,4.848h3.449Z" transform="translate(-239.933 -67.406)" fill="#fff"/>
        <path id="Caminho_281" data-name="Caminho 281" d="M364.217,90.575V82.336h5v.556h-4.374v3.251h3.727V86.7h-3.727v3.321h4.374v.556Z" transform="translate(-246.132 -67.406)" fill="#fff"/>
        <path id="Caminho_282" data-name="Caminho 282" d="M379.469,89.823a2.849,2.849,0,0,1-2.06.752h-2.765V82.336h2.765a2.846,2.846,0,0,1,2.06.752c.833.833.8,2.14.8,3.252S380.3,88.99,379.469,89.823Zm-.44-6.3a2.366,2.366,0,0,0-1.771-.636h-1.99v7.128h1.99a2.366,2.366,0,0,0,1.771-.636c.66-.671.613-2.13.613-3.043S379.689,84.2,379.029,83.528Z" transform="translate(-250.1 -67.406)" fill="#fff"/>
        <path id="Caminho_283" data-name="Caminho 283" d="M389.2,90.644a2.672,2.672,0,0,1-2.823-2.742V82.336H387v5.485a2.2,2.2,0,1,0,4.4,0V82.336h.624V87.9A2.671,2.671,0,0,1,389.2,90.644Z" transform="translate(-254.565 -67.406)" fill="#fff"/>
        <path id="Caminho_284" data-name="Caminho 284" d="M400.973,90.6a2.9,2.9,0,0,1-2.059-.845c-.753-.752-.765-1.481-.765-3.344s.012-2.592.765-3.345a2.9,2.9,0,0,1,2.059-.844,2.73,2.73,0,0,1,2.8,2.407h-.636a2.161,2.161,0,0,0-2.164-1.851,2.184,2.184,0,0,0-1.562.636c-.591.59-.637,1.227-.637,3s.046,2.407.637,3A2.222,2.222,0,0,0,403.16,88.2h.613A2.746,2.746,0,0,1,400.973,90.6Z" transform="translate(-259.044 -67.363)" fill="#fff"/>
        <path id="Caminho_285" data-name="Caminho 285" d="M413.946,90.575l-.718-2h-3.842l-.717,2H408l3.032-8.239h.556l3.032,8.239Zm-2.639-7.406-1.724,4.848h3.449Z" transform="translate(-262.792 -67.406)" fill="#fff"/>
        <path id="Caminho_286" data-name="Caminho 286" d="M422.387,90.6a2.908,2.908,0,0,1-2.06-.845c-.751-.752-.764-1.481-.764-3.344s.012-2.592.764-3.345a2.908,2.908,0,0,1,2.06-.844,2.731,2.731,0,0,1,2.8,2.407h-.637a2.161,2.161,0,0,0-2.163-1.851,2.184,2.184,0,0,0-1.562.636c-.59.59-.637,1.227-.637,3s.046,2.407.637,3a2.223,2.223,0,0,0,3.749-1.215h.613A2.746,2.746,0,0,1,422.387,90.6Zm-.278,2.477h-.73l.834-1.736h.636Z" transform="translate(-267.193 -67.363)" fill="#fff"/>
        <path id="Caminho_287" data-name="Caminho 287" d="M435.546,89.352l-.716-2h-3.843l-.717,2H429.6l3.031-8.239h.556l3.032,8.239Zm-1.944-9.2a1.477,1.477,0,0,1-.8-.278,1.318,1.318,0,0,0-.648-.243c-.184,0-.324.024-.682.383l-.348-.336c.532-.533.8-.556,1.03-.556a1.337,1.337,0,0,1,.8.278,1.186,1.186,0,0,0,.647.243c.163,0,.336-.035.684-.382l.347.336C434.1,80.13,433.81,80.153,433.6,80.153Zm-.694,1.793-1.724,4.848h3.449Z" transform="translate(-271.012 -66.183)" fill="#fff"/>
        <path id="Caminho_288" data-name="Caminho 288" d="M446.047,89.757a2.933,2.933,0,0,1-4.12,0c-.752-.752-.764-1.481-.764-3.344s.012-2.592.764-3.345a2.935,2.935,0,0,1,4.12,0c.753.753.763,1.481.763,3.345S446.8,89,446.047,89.757Zm-.5-6.341a2.235,2.235,0,0,0-3.123,0c-.591.59-.637,1.227-.637,3s.046,2.407.637,3a2.233,2.233,0,0,0,3.123,0c.59-.59.637-1.227.637-3S446.139,84.006,445.549,83.416Z" transform="translate(-275.412 -67.363)" fill="#fff"/>
        <path id="Caminho_289" data-name="Caminho 289" d="M179.366,105.718a2.56,2.56,0,0,1-.322,1.286,2.274,2.274,0,0,1-.927.893,2.878,2.878,0,0,1-1.389.325h-1.871v3.239H173.6V103.22h3.128a3.066,3.066,0,0,1,1.086.19,2.42,2.42,0,0,1,.849.525,2.276,2.276,0,0,1,.526.786A2.645,2.645,0,0,1,179.366,105.718Zm-1.249,0a1.3,1.3,0,0,0-.4-1.009,1.5,1.5,0,0,0-1.061-.367h-1.8v2.741h1.8a1.51,1.51,0,0,0,1.063-.364A1.292,1.292,0,0,0,178.117,105.721Z" transform="translate(-173.596 -75.353)" fill="#fff"/>
        <path id="Caminho_290" data-name="Caminho 290" d="M189.8,111.461h-1.332L187.9,109.8h-3.253l-.565,1.656H182.75l3.021-8.241h1.005Zm-2.247-2.718-1.248-3.657-1.282,3.657Z" transform="translate(-177.079 -75.353)" fill="#fff"/>
        <path id="Caminho_291" data-name="Caminho 291" d="M200.691,108.68a2.867,2.867,0,0,1-.385,1.487,2.638,2.638,0,0,1-1.059,1.006,3.4,3.4,0,0,1-3.027,0,2.64,2.64,0,0,1-1.057-1.006,2.856,2.856,0,0,1-.385-1.487v-5.46h1.249v5.4a2.03,2.03,0,0,0,.209.946,1.471,1.471,0,0,0,.593.621,1.968,1.968,0,0,0,1.8,0,1.488,1.488,0,0,0,.6-.618,2.013,2.013,0,0,0,.212-.949v-5.4h1.249Z" transform="translate(-181.657 -75.353)" fill="#fff"/>
        <path id="Caminho_292" data-name="Caminho 292" d="M211.78,111.461h-5.228V103.22h1.26v7.116h3.968Z" transform="translate(-186.137 -75.353)" fill="#fff"/>
        <path id="Caminho_293" data-name="Caminho 293" d="M221.709,107.3q0,.977-.037,1.494a3.48,3.48,0,0,1-.206.972,2.462,2.462,0,0,1-.543.844,3.121,3.121,0,0,1-4.341,0,2.471,2.471,0,0,1-.554-.842,3.448,3.448,0,0,1-.209-.969q-.039-.523-.039-1.5,0-.752.019-1.192a5.608,5.608,0,0,1,.09-.808,2.651,2.651,0,0,1,.232-.687,2.527,2.527,0,0,1,.461-.624,2.944,2.944,0,0,1,2.165-.876,2.98,2.98,0,0,1,2.176.875,2.457,2.457,0,0,1,.545.845,3.449,3.449,0,0,1,.2.969Q221.709,106.32,221.709,107.3Zm-1.249,0a10.935,10.935,0,0,0-.093-1.732,1.61,1.61,0,0,0-.393-.824,1.55,1.55,0,0,0-.545-.369,1.762,1.762,0,0,0-1.368,0,1.553,1.553,0,0,0-.546.369,1.667,1.667,0,0,0-.392.829,10.729,10.729,0,0,0-.094,1.726q0,.654.02,1.046a5.057,5.057,0,0,0,.076.686,1.924,1.924,0,0,0,.136.457,1.743,1.743,0,0,0,.254.366,1.618,1.618,0,0,0,.551.373,1.762,1.762,0,0,0,.681.135,1.615,1.615,0,0,0,1.226-.508,1.476,1.476,0,0,0,.308-.5,2.939,2.939,0,0,0,.142-.768Q220.459,108.1,220.459,107.3Z" transform="translate(-189.648 -75.312)" fill="#fff"/>
        <path id="Caminho_294" data-name="Caminho 294" d="M236.772,111.461h-1.458L233.578,108h-1.559v3.465h-1.261V103.22h3.2a2.839,2.839,0,0,1,1.344.308,2.186,2.186,0,0,1,.9.855,2.454,2.454,0,0,1,.315,1.247,2.2,2.2,0,0,1-.456,1.417,2.246,2.246,0,0,1-1.184.772Zm-1.5-5.819a1.219,1.219,0,0,0-.382-.95,1.457,1.457,0,0,0-1.02-.347h-1.848v2.578h1.848a1.471,1.471,0,0,0,1.018-.344A1.193,1.193,0,0,0,235.268,105.642Z" transform="translate(-195.348 -75.353)" fill="#fff"/>
        <path id="Caminho_295" data-name="Caminho 295" d="M247.238,111.461h-5.273V103.22h5.273v1.125h-4.013v2.4h3.426v1.113h-3.426v2.475h4.013Z" transform="translate(-199.612 -75.353)" fill="#fff"/>
        <path id="Caminho_296" data-name="Caminho 296" d="M258.416,111.461H257.27l-3.8-5.8v5.8h-1.261V103.22h1.152l3.811,5.788V103.22h1.248Z" transform="translate(-203.509 -75.353)" fill="#fff"/>
        <path id="Caminho_297" data-name="Caminho 297" d="M270.15,111.461h-1.333l-.565-1.656H265l-.565,1.656H263.1l3.021-8.241h1.005Zm-2.247-2.718-1.248-3.657-1.281,3.657Z" transform="translate(-207.655 -75.353)" fill="#fff"/>
        <path id="Caminho_298" data-name="Caminho 298" d="M279.942,104.345h-2.266v7.116h-1.249v-7.116h-2.273V103.22h5.788Z" transform="translate(-211.861 -75.353)" fill="#fff"/>
        <path id="Caminho_299" data-name="Caminho 299" d="M290.215,107.3q0,.977-.037,1.494a3.547,3.547,0,0,1-.206.972,2.474,2.474,0,0,1-.543.844,2.968,2.968,0,0,1-2.176.88,2.937,2.937,0,0,1-2.164-.876,2.482,2.482,0,0,1-.554-.842,3.514,3.514,0,0,1-.209-.969q-.039-.523-.039-1.5,0-.752.019-1.192a5.519,5.519,0,0,1,.092-.808,2.6,2.6,0,0,1,.23-.687,2.541,2.541,0,0,1,.461-.624,2.942,2.942,0,0,1,2.164-.876,2.98,2.98,0,0,1,2.176.875,2.467,2.467,0,0,1,.546.845,3.514,3.514,0,0,1,.2.969Q290.214,106.32,290.215,107.3Zm-1.249,0a10.909,10.909,0,0,0-.094-1.732,1.614,1.614,0,0,0-.392-.824,1.577,1.577,0,0,0-.546-.369,1.763,1.763,0,0,0-1.368,0,1.544,1.544,0,0,0-.545.369,1.673,1.673,0,0,0-.393.829,10.752,10.752,0,0,0-.093,1.726c0,.436.006.785.019,1.046a4.969,4.969,0,0,0,.076.686,1.918,1.918,0,0,0,.137.457,1.7,1.7,0,0,0,.254.366,1.609,1.609,0,0,0,.551.373,1.759,1.759,0,0,0,.681.135,1.62,1.62,0,0,0,1.228-.508,1.527,1.527,0,0,0,.308-.5,2.971,2.971,0,0,0,.141-.768C288.952,108.262,288.966,107.833,288.966,107.3Z" transform="translate(-215.717 -75.312)" fill="#fff"/>
        <path id="Caminho_300" data-name="Caminho 300" d="M304.7,108.952a3.375,3.375,0,0,1-.365,1.089,2.737,2.737,0,0,1-.644.8,2.646,2.646,0,0,1-.877.483,3.311,3.311,0,0,1-1.054.164,3.231,3.231,0,0,1-.811-.1,2.89,2.89,0,0,1-.732-.3,2.968,2.968,0,0,1-.621-.475,2.455,2.455,0,0,1-.554-.842,3.41,3.41,0,0,1-.209-.969q-.041-.523-.04-1.5,0-.752.021-1.192a5.708,5.708,0,0,1,.09-.808,2.583,2.583,0,0,1,.232-.687,2.5,2.5,0,0,1,.461-.624,2.945,2.945,0,0,1,.977-.653,3.121,3.121,0,0,1,1.187-.223,2.919,2.919,0,0,1,1.941.657,3.031,3.031,0,0,1,1,1.878h-1.277a1.9,1.9,0,0,0-.574-1.03,1.572,1.572,0,0,0-1.088-.38,1.8,1.8,0,0,0-.681.129,1.5,1.5,0,0,0-.54.367,1.609,1.609,0,0,0-.255.364,1.949,1.949,0,0,0-.146.485,5.042,5.042,0,0,0-.076.68c-.014.251-.02.6-.02,1.038s.006.779.02,1.03a5.09,5.09,0,0,0,.076.68,1.863,1.863,0,0,0,.146.483,2.122,2.122,0,0,0,.255.375,1.574,1.574,0,0,0,.54.364,1.751,1.751,0,0,0,.681.133,1.692,1.692,0,0,0,.785-.175,1.555,1.555,0,0,0,.566-.5,2.081,2.081,0,0,0,.321-.739Z" transform="translate(-221.235 -75.312)" fill="#fff"/>
        <path id="Caminho_301" data-name="Caminho 301" d="M315.423,107.3q0,.977-.036,1.494a3.5,3.5,0,0,1-.206.972,2.469,2.469,0,0,1-.542.844,2.972,2.972,0,0,1-2.177.88,2.935,2.935,0,0,1-2.164-.876,2.454,2.454,0,0,1-.554-.842,3.427,3.427,0,0,1-.209-.969q-.041-.523-.04-1.5,0-.752.021-1.192a5.6,5.6,0,0,1,.09-.808,2.6,2.6,0,0,1,.232-.687,2.509,2.509,0,0,1,.461-.624,2.939,2.939,0,0,1,2.164-.876,2.985,2.985,0,0,1,2.177.875,2.493,2.493,0,0,1,.545.845,3.494,3.494,0,0,1,.2.969Q315.425,106.32,315.423,107.3Zm-1.248,0a10.744,10.744,0,0,0-.094-1.732,1.6,1.6,0,0,0-.392-.824,1.564,1.564,0,0,0-.546-.369,1.76,1.76,0,0,0-1.367,0,1.541,1.541,0,0,0-.546.369,1.678,1.678,0,0,0-.393.829,10.823,10.823,0,0,0-.093,1.726c0,.436.006.785.02,1.046a4.787,4.787,0,0,0,.076.686,1.9,1.9,0,0,0,.136.457,1.77,1.77,0,0,0,.255.366,1.61,1.61,0,0,0,.551.373,1.761,1.761,0,0,0,.681.135,1.616,1.616,0,0,0,1.227-.508,1.506,1.506,0,0,0,.308-.5,2.944,2.944,0,0,0,.141-.768Q314.175,108.1,314.175,107.3Z" transform="translate(-225.309 -75.312)" fill="#fff"/>
        <path id="Caminho_302" data-name="Caminho 302" d="M325.729,109.068a2.322,2.322,0,0,1-.215,1,2.137,2.137,0,0,1-.618.774,2.8,2.8,0,0,1-.942.481,4.123,4.123,0,0,1-1.187.16,4.823,4.823,0,0,1-1.642-.252,3.47,3.47,0,0,1-1.28-.838l.837-.825a2.576,2.576,0,0,0,.608.463,2.418,2.418,0,0,0,.7.254,4.122,4.122,0,0,0,.8.074,2.069,2.069,0,0,0,1.249-.333,1.223,1.223,0,0,0,.124-1.783,1,1,0,0,0-.342-.222,2.654,2.654,0,0,0-.557-.127l-.973-.136a2.818,2.818,0,0,1-1.565-.661,2.045,2.045,0,0,1-.6-1.571,2.385,2.385,0,0,1,.333-1.266,2.228,2.228,0,0,1,.955-.851,3.32,3.32,0,0,1,1.464-.3,4.118,4.118,0,0,1,1.435.224,3.353,3.353,0,0,1,1.126.713l-.8.792a2.067,2.067,0,0,0-.531-.382,2.341,2.341,0,0,0-.588-.2,3.517,3.517,0,0,0-.673-.059,1.839,1.839,0,0,0-.807.164,1.188,1.188,0,0,0-.517.454,1.237,1.237,0,0,0-.178.663.973.973,0,0,0,.31.767,1.547,1.547,0,0,0,.4.234,2.164,2.164,0,0,0,.526.144l.938.141a4.259,4.259,0,0,1,.925.228,1.975,1.975,0,0,1,.612.381A2.126,2.126,0,0,1,325.729,109.068Z" transform="translate(-229.248 -75.312)" fill="#fff"/>
        <path id="Caminho_303" data-name="Caminho 303" d="M335.627,104.345H333.36v7.116h-1.248v-7.116H329.84V103.22h5.787Z" transform="translate(-233.051 -75.353)" fill="#fff"/>
        <path id="Caminho_304" data-name="Caminho 304" d="M345.923,111.461h-1.332l-.566-1.656h-3.253l-.565,1.656h-1.333l3.021-8.241h1Zm-2.247-2.718-1.248-3.657-1.282,3.657Z" transform="translate(-236.489 -75.353)" fill="#fff"/>
        <path id="Caminho_305" data-name="Caminho 305" d="M359.273,109.068a2.321,2.321,0,0,1-.215,1,2.142,2.142,0,0,1-.619.774,2.794,2.794,0,0,1-.941.481,4.125,4.125,0,0,1-1.186.16,4.826,4.826,0,0,1-1.643-.252,3.465,3.465,0,0,1-1.279-.838l.836-.825a2.559,2.559,0,0,0,.609.463,2.424,2.424,0,0,0,.7.254,4.147,4.147,0,0,0,.8.074,2.067,2.067,0,0,0,1.248-.333,1.223,1.223,0,0,0,.125-1.783.99.99,0,0,0-.341-.222,2.651,2.651,0,0,0-.558-.127l-.971-.136a2.814,2.814,0,0,1-1.566-.661,2.041,2.041,0,0,1-.6-1.571,2.386,2.386,0,0,1,.334-1.266,2.219,2.219,0,0,1,.956-.851,3.312,3.312,0,0,1,1.463-.3,4.116,4.116,0,0,1,1.435.224,3.349,3.349,0,0,1,1.125.713l-.8.792a2.081,2.081,0,0,0-.532-.382,2.375,2.375,0,0,0-.588-.2,3.528,3.528,0,0,0-.672-.059,1.844,1.844,0,0,0-.808.164,1.2,1.2,0,0,0-.517.454,1.243,1.243,0,0,0-.178.663.976.976,0,0,0,.311.767,1.559,1.559,0,0,0,.4.234,2.149,2.149,0,0,0,.526.144l.938.141a4.23,4.23,0,0,1,.924.228,1.987,1.987,0,0,1,.615.381A2.129,2.129,0,0,1,359.273,109.068Z" transform="translate(-242.012 -75.312)" fill="#fff"/>
        <path id="Caminho_306" data-name="Caminho 306" d="M370,107.3q0,.977-.037,1.494a3.48,3.48,0,0,1-.206.972,2.47,2.47,0,0,1-.542.844,2.972,2.972,0,0,1-2.176.88,2.935,2.935,0,0,1-2.164-.876,2.464,2.464,0,0,1-.554-.842,3.431,3.431,0,0,1-.209-.969q-.041-.523-.04-1.5,0-.752.02-1.192a5.7,5.7,0,0,1,.09-.808,2.6,2.6,0,0,1,.232-.687,2.51,2.51,0,0,1,.461-.624,2.94,2.94,0,0,1,2.164-.876,2.984,2.984,0,0,1,2.176.875,2.505,2.505,0,0,1,.546.845,3.517,3.517,0,0,1,.2.969Q370,106.32,370,107.3Zm-1.249,0a10.766,10.766,0,0,0-.094-1.732,1.61,1.61,0,0,0-.392-.824,1.564,1.564,0,0,0-.546-.369,1.76,1.76,0,0,0-1.367,0,1.541,1.541,0,0,0-.546.369,1.678,1.678,0,0,0-.393.829,10.9,10.9,0,0,0-.093,1.726c0,.436.006.785.02,1.046a4.786,4.786,0,0,0,.076.686,1.926,1.926,0,0,0,.136.457,1.773,1.773,0,0,0,.255.366,1.612,1.612,0,0,0,.551.373,1.759,1.759,0,0,0,.681.135,1.616,1.616,0,0,0,1.227-.508,1.506,1.506,0,0,0,.308-.5,2.92,2.92,0,0,0,.141-.768Q368.755,108.1,368.755,107.3Z" transform="translate(-246.078 -75.312)" fill="#fff"/>
        <path id="Caminho_307" data-name="Caminho 307" d="M381.313,108.68a2.867,2.867,0,0,1-.383,1.487,2.637,2.637,0,0,1-1.061,1.006,3.4,3.4,0,0,1-3.026,0,2.653,2.653,0,0,1-1.057-1.006,2.867,2.867,0,0,1-.384-1.487v-5.46h1.249v5.4a2.022,2.022,0,0,0,.209.946,1.469,1.469,0,0,0,.593.621,1.965,1.965,0,0,0,1.8,0,1.5,1.5,0,0,0,.6-.618,2.013,2.013,0,0,0,.212-.949v-5.4h1.248Z" transform="translate(-250.388 -75.353)" fill="#fff"/>
        <path id="Caminho_308" data-name="Caminho 308" d="M391.624,111.461h-5.279v-1.074l3.809-6.042h-3.646V103.22h5.115v1.023l-3.832,6.093h3.832Z" transform="translate(-254.553 -75.353)" fill="#fff"/>
        <path id="Caminho_309" data-name="Caminho 309" d="M401.935,111.461H400.6l-.565-1.656h-3.253l-.564,1.656h-1.334l3.022-8.241h1Zm-2.248-2.718-1.248-3.657-1.282,3.657Z" transform="translate(-257.803 -75.353)" fill="#fff"/>
    </g>
</svg>
